<svg xmlns="http://www.w3.org/2000/svg" width="1451.839" height="1451.839" viewBox="725.42 725.42 1451.839 1451.839"><path fill="#BD539A" stroke="#000000" stroke-width=".5" stroke-miterlimit="10" d="M725.67 725.67h1451.34v1451.34H725.67V725.67z"/><path fill="#058E42" d="M1576.25 892.77c297.035 16.354 528.98 292.506 537.3 581.755 8.726 303.42-234.254 565.68-537.28 582.398-150.13 8.282-298.497-47.2-404.006-154.856-110.515-112.765-164.442-270.373-160.364-426.898 7.886-302.65 242.69-600.11 564.35-582.4z"/><path fill="#0D522A" d="M2132.303 1474.513c-4.356-104.94-33.926-205.17-85.664-296.476-51.427-87-121.23-162.643-206.494-217.396-87.017-54.58-184.443-85.714-287.354-87.9-102.68.293-199.886 30.152-285.952 85.957-88.493 58.87-157.238 142.23-204.816 236.737-50.41 104.916-73.543 219.128-68.017 335.39 7.42 111.807 41.13 218.748 104.007 311.865 60.372 85.6 141.927 154.38 239.342 194.073 102.556 40.357 211.526 48.664 319.707 29.142 103.307-20.914 197.174-68.464 277.192-136.797 75.717-67.16 133.628-151.944 166.996-247.662 22.583-67.116 32.375-136.195 31.053-206.933-.547-10.22-9.307-18.207-19.27-18.248-9.893-.04-18.322 8.117-18.237 18.27.207 13.12.14 26.173-.207 39.29-.232 6.21-.594 12.415-1.026 18.61-.217 3.083-.47 6.164-.734 9.242-.132 1.536-.277 3.07-.422 4.604-.098 1.022-.2 2.044-.303 3.064.244-2.32.252-2.414.022-.284-3.02 25.218-7.47 49.962-13.31 74.678-3.158 12.1-6.576 24.053-10.27 36-1.817 5.675-3.752 11.317-5.754 16.936-.998 2.803-2.034 5.59-3.08 8.377-.52 1.394-1.054 2.78-1.588 4.167 1.655-4.31-.69 1.73-.994 2.487-9.452 22.876-20.103 44.946-32.017 66.64-6.177 10.67-12.56 21.136-19.198 31.523-3.225 4.94-6.552 9.823-9.938 14.67-1.69 2.42-3.41 4.822-5.14 7.22 2.645-3.663-.28.368-.695.927-1.17 1.585-2.353 3.158-3.537 4.73-15.147 19.592-31.216 38.124-48.375 55.98-8.8 8.76-17.747 17.272-26.915 25.646-4.44 3.976-8.962 7.867-13.533 11.712-.552.465-4.442 3.675-.87.733-1.154.952-2.317 1.895-3.478 2.835-2.71 2.196-5.45 4.356-8.202 6.504-20.015 15.253-40.65 29.22-62.192 42.226-10.996 6.303-22.07 12.32-33.332 18.138-2.722 1.372-5.463 2.71-8.21 4.04-.678.33-5.342 2.53-1.017.494-1.38.65-2.77 1.29-4.157 1.93-6.023 2.774-12.113 5.426-18.237 7.995-24.007 9.736-48.29 17.952-73.243 24.912-12.726 3.225-25.444 6.125-38.306 8.76-5.254 1.02 4.133-.754-1.14.206-1.56.284-3.12.553-4.683.824-3.13.542-6.266 1.046-9.407 1.534-6.837 1.066-13.698 1.976-20.57 2.788-26.81 2.835-53.43 3.988-80.387 3.584-6.36-.17-12.713-.48-19.058-.87-1.58-.098-3.16-.207-4.738-.317-.792-.058-6.124-.483-1.157-.073-3.666-.302-7.324-.658-10.98-1.033-12.98-1.512-25.82-3.34-38.708-5.488-25.362-4.856-50.053-11.244-74.62-19.19-2.9-.976-5.787-1.99-8.67-3.017-1.438-.515-2.874-1.04-4.31-1.566-4.848-1.778 3.76 1.437-1.066-.396-6.18-2.347-12.3-4.837-18.383-7.42-11.624-5.122-23.032-10.504-34.39-16.19-22.43-11.93-43.792-25.102-64.59-39.687-1.234-.884-2.46-1.784-3.684-2.682-4.136-3.027 3.168 2.392-.935-.686-2.43-1.82-4.836-3.672-7.236-5.537-5.2-4.04-10.307-8.206-15.353-12.446-9.64-8.318-19-16.818-28.225-25.596-18.198-18.157-35.02-37.195-50.915-57.397 2.88 3.75-.287-.396-.724-.978-.93-1.238-1.85-2.482-2.77-3.728-1.84-2.492-3.65-5.013-5.45-7.54-3.904-5.48-7.69-11.058-11.398-16.69-7.043-11.015-13.77-22.126-20.287-33.458-6.31-11.595-12.297-23.265-18.06-35.14-2.717-5.758-5.32-11.576-7.848-17.434-1.268-2.936-2.5-5.89-3.718-8.85-.61-1.48-1.21-2.966-1.81-4.453-.83-2.085-.795-1.988.11.296-.39-.997-.778-1.994-1.163-2.994-9.557-25.5-17.442-51.308-23.94-77.752-3.174-13.482-5.85-27.08-8.1-40.746-1.093-6.625-2.053-13.28-2.933-19.95-.442-3.35-.845-6.702-1.23-10.06-.09-.763-.693-6.432-.162-1.37-.237-2.253-.453-4.51-.665-6.766-2.414-28.82-3.074-57.488-2.174-86.394.577-14.446 1.682-28.868 3.21-43.244.726-6.83 1.585-13.65 2.525-20.453.235-1.694.484-3.387.73-5.08.113-.76.99-6.442.198-1.383.613-3.924 1.277-7.838 1.964-11.75 5.107-27.585 11.74-54.614 19.865-81.465 4.096-13.108 8.65-26.072 13.578-38.89 2.347-6.106 4.805-12.16 7.332-18.182.63-1.5 1.272-2.997 1.915-4.493-1.938 4.52.23-.508.53-1.19 1.528-3.466 3.1-6.907 4.686-10.34 11.458-24.18 24.162-47.492 38.206-70.268 7.125-11.04 14.454-21.864 22.046-32.59 3.666-5.07 7.422-10.06 11.232-14.995-2.91 3.77.307-.38.76-.956.962-1.22 1.935-2.433 2.907-3.646 2.264-2.828 4.562-5.623 6.874-8.404 16.625-19.526 34.148-37.895 52.836-55.456 9.394-8.428 18.926-16.58 28.694-24.572 2.35-1.88 4.72-3.73 7.096-5.566.574-.446 4.612-3.504.906-.7 1.197-.906 2.4-1.802 3.602-2.696 5.213-3.876 10.5-7.627 15.83-11.295 20.637-13.826 41.825-26.226 63.965-37.487 11.113-5.31 22.278-10.3 33.64-15.053.676-.275 5.31-2.095 1.017-.413 1.37-.537 2.747-1.062 4.122-1.585 2.754-1.05 5.52-2.065 8.287-3.065 6.01-2.17 12.064-4.193 18.14-6.122 23.685-7.17 47.478-12.69 71.88-16.792 5.887-.917 11.792-1.696 17.7-2.393 2.968-.35 5.94-.66 8.91-.954.75-.075 5.79-.52 1.085-.11 1.99-.173 3.983-.324 5.977-.472 12.587-.76 25.093-1.18 37.702-1.292 25.49.404 50.57 2.47 75.805 6.084 2.974.462 5.938.964 8.905 1.48 1.48.258 2.96.528 4.438.8.74.134 5.728 1.095 1.082.186 6.356 1.242 12.688 2.635 19 4.12 12.052 3.006 23.942 6.288 35.834 9.87 23.485 7.668 46.21 16.66 68.656 26.98 1.33.63 2.654 1.27 3.98 1.91 4.48 2.162-3.47-1.735.986.478 2.635 1.307 5.254 2.648 7.87 4 5.66 2.923 11.26 5.972 16.823 9.093 10.64 6.133 21.08 12.473 31.444 19.06 10.226 6.81 20.248 13.807 30.182 21.038 4.73 3.513 9.394 7.117 14.02 10.772 2.314 1.826 4.61 3.68 6.898 5.543 1.143.93 2.277 1.868 3.413 2.808.757.628 1.514 1.258 2.268 1.89-1.767-1.5-1.854-1.575-.266-.227 18.672 16.192 36.32 33.2 53.287 51.17 8.314 9.174 16.402 18.475 24.35 27.97 3.775 4.593 7.467 9.253 11.11 13.95 1.823 2.352 3.62 4.723 5.41 7.1 3.02 4.01-2.28-3.104.7.937 1.178 1.598 2.342 3.208 3.505 4.814 14.42 20.385 27.67 41.312 40.02 63.013 5.972 11.012 11.688 22.094 17.22 33.334 2.61 5.43 5.117 10.9 7.567 16.396.614 1.377 1.218 2.76 1.822 4.14 2.034 4.656-1.51-3.563.477 1.114 1.378 3.243 2.713 6.504 4.035 9.768 9.272 23.638 17.193 47.528 23.984 71.994 2.786 10.906 5.353 21.82 7.733 32.823 1.15 5.536 2.2 11.09 3.192 16.65.453 2.537.878 5.08 1.298 7.622.85 5.14-.598-3.906.196 1.25.234 1.532.458 3.065.683 4.6 3.05 22.867 4.982 45.642 5.908 68.69.54 10.244 9.297 18.245 19.3 18.245 9.868 0 18.336-8.112 18.212-18.266-.002.002 0 .002 0 .003z"/><path fill="#48AF56" d="M1427.198 808.99c322.763 19.765 667.175 273.015 651.224 623.025-14.95 328.066-340.005 572.382-649.886 593.088-164.037 10.96-327.403-41.5-449.183-153.125-122.83-112.588-194.37-274.122-202.04-439.958-7.77-167.933 51.71-336.202 172.344-454.833 125.94-123.85 303.095-178.878 477.54-168.196z"/><path fill="#0D522A" d="M2094.104 1432.743c3.706-109.043-26.2-212.794-82.958-305.623-61.343-97.96-149.878-175.833-249.466-233.286-111.202-61.856-234.33-96.566-361.544-101.04-123.12-2.228-243.468 25.24-350.416 87.086-99.89 59.146-178.432 147.077-229.164 251.153-51.284 110.843-68.384 232.03-54.495 353.095 15.665 117.504 59.942 228.078 131.863 322.484 69.503 87.777 158.615 155.132 263.157 195.62 109.865 40.054 225.98 47.982 341.04 28.87 114.153-20.966 221.03-66.643 315.793-133.55 88.196-64.365 165.004-145.5 215.262-243.105 35.017-69.854 56.14-143.606 60.93-221.702.845-17.928-30.507-19.38-31.368-1.444-6.19 105.873-44.388 203.385-105.484 289.535-31.922 43.188-68.375 81.63-108.908 116.814-42.285 35.496-87.758 65.79-136.418 91.836-102.39 52.746-214.038 81.185-329.3 82.046-28-.317-55.62-2.32-83.382-5.98-27.666-4.178-54.774-9.98-81.75-17.403-52.024-15.49-100.678-37.69-146.907-66.095-93.257-58.652-165.462-144.223-214.77-242.135-5.995-12.183-11.477-24.61-16.584-37.188-5.48-13.45-10.456-27.105-15.01-40.896-9.03-28.284-16.24-56.815-21.9-85.96-10.124-58.462-12.353-117.722-6.864-176.793 3.384-29.474 8.574-58.386 15.553-87.22 7.218-27.32 16.003-53.874 26.63-80.06 22.326-51.795 51.016-99.49 86.7-143.187 74.534-87.394 171.267-148.598 281.206-181.255 120.233-33.142 245.137-31 365.614-.17 113.654 31.13 220.147 86.978 307.01 167.104 78.106 73.37 139.755 163.97 168.12 268.12 12.723 49.126 18.037 98.176 16.446 148.888-.755 17.917 30.512 19.35 31.365 1.444v-.003z"/><g><path fill="#0E6B30" d="M1441.064 960.547c122.996 9.2 232.23 76.38 315.977 164.124 83.897 87.903 146.924 199.812 154.37 322.83 7.132 117.857-38.758 235.303-125.038 316.187-92.33 86.557-222.456 132.29-347.488 139.493-131.75 7.59-259.257-43.244-349.98-139.175-86.118-91.06-127.536-210.773-120.36-335.44 7.414-128.84 56.202-263.87 149.428-355.62 85.328-83.98 204.756-121.25 323.092-112.398z"/><path fill="#0D522A" d="M1900.158 1450.576c3.53 80.08-15.45 156.938-56.147 226.017-42.23 69.1-105.637 119.985-176.98 156.71-79.687 38.88-168.984 58.595-257.547 58.898-88.287-1.957-171.435-29.47-244.317-79.198-67.053-48.4-120.948-113.414-153.35-189.767-7.645-18.857-13.934-37.875-19.255-57.514-5.036-20.98-8.697-41.93-11.25-63.354-1.13-10.544-1.8-21.135-2.112-31.733-.237-11.636-.2-23.208.08-34.842 1.057-23.667 3.456-47.03 6.986-70.455 3.677-22.78 9.097-45.163 15.214-67.395 6.638-22.398 14.323-44.265 23.134-65.9 8.488-20.208 18.385-39.852 29.352-58.824 5.466-9.433 11.262-18.673 17.35-27.716 2.887-4.29 5.844-8.5 8.84-12.646 1.5-2.073 3.02-4.12 4.543-6.156 1.613-2.155 3.402-4.482 4.37-5.72 25.386-31.43 53.805-58.893 86.71-82.377 16.34-10.88 33.064-20.567 50.6-29.394 17.2-8.025 34.634-15.277 52.755-20.987 37.814-11.272 76.516-16.68 115.907-18.07 20.902-.144 41.504.88 62.293 3.063 20.22 2.704 39.904 6.56 59.637 11.74 20.097 5.948 39.46 13.06 58.682 21.41 18.67 8.766 36.477 18.658 54.245 29.112 35.816 22.205 68.608 47.862 99.28 76.738 58.585 57.235 108.822 124.436 139.764 200.706 17.42 44.64 27.753 89.856 31.217 137.658 3.244 14.285 22.64 5.297 22.504-6.428-6.36-83.302-35.334-159.04-79.96-229.235-46.308-71.243-107.096-134.805-177.006-183.187-71.712-48.357-149.158-77.93-235.863-82.806-81.187-2.388-160.24 13.473-232.252 51.553-74.827 41.096-130.75 105.748-170.952 180.182-43.988 86.085-67.884 181.042-70.224 277.674-.03 86.74 21.39 167.942 66.684 242.097 45.682 72.538 110.826 130.883 186.93 169.955 84.59 40.56 174.007 51.98 266.707 40.477 88.74-12.85 174.685-41.152 250.92-88.774 68.578-45.087 125.237-105.014 159.112-180.414 27.09-62.944 39.072-129.08 35.907-197.523-2.995-14.777-22.72-5.54-22.504 6.426z"/><g><path fill="#0F8536" d="M1489.092 964.143c119.62 8.94 225.97 76.095 307.574 160.802 81.504 84.603 144.24 191.13 152.085 310.342 7.817 118.802-34.35 240.51-119.318 324.81-88.047 87.356-214.2 132.89-336.54 139.98-128.526 7.447-250.83-42.875-337.653-138.045-87.836-96.28-128.498-224.745-122.005-353.79 6.158-122.394 53.813-248.634 142.942-335 82.63-80.07 198.77-117.632 312.915-109.1z"/><path fill="#0D522A" d="M1937.664 1439.24c4.014 82.29-14.105 162.06-54.242 234.077-40.68 70.336-102.653 122.722-174.13 159.93-78.965 38.734-165.583 57.49-253.49 56.378-87.79-3.535-167.467-33.955-237.65-86.502-66.586-52.845-115.844-122.344-145.766-201.77-29.947-86.39-35.654-177.46-19.502-267.306 16.948-83.286 50.753-163.91 106.98-228.496 51.504-57.386 115.57-99.08 190.63-118.112 78.494-18.744 157.43-17.39 234.194 8.313 78.078 27.642 145.567 77.184 203.29 135.75 54.83 57.646 101.717 124.262 128.06 199.876 11.73 35.32 18.72 70.77 21.626 107.866 3.554 14.67 22.284 2.764 22.172-8.198-6.76-81.095-36.002-153.98-80.57-221.59-46.606-69.163-106.985-130.943-175.854-178.065-70.61-47.028-147.547-76.035-232.74-79.282-78.978-.672-156.766 17.082-225.753 55.937-71.373 41.626-125 104.738-162.95 177.418-41.337 84.015-61.612 175.337-60.358 268.913 3.283 90.368 27.732 175.684 75.628 252.59 48.31 73.513 112.554 130.702 191.884 168.807 84.533 37.972 174.694 42.58 265.258 27.574 86.04-16.02 169.546-46.83 240.066-99.616 66.578-51.33 113.902-118.048 142.174-197.103 18.673-57.126 26.302-115.575 23.215-175.582-3.537-14.503-22.288-2.68-22.172 8.197-.002 0-.002 0 0-.002z"/></g></g></svg>